<svg version="1.1" id="Layer_1" xmlns="http://www.w3.org/2000/svg" xmlns:xlink="http://www.w3.org/1999/xlink" x="0px" y="0px"
	 width="100%" viewBox="0 0 79 66" enable-background="new 0 0 79 66" xml:space="preserve">
<path fill="none" opacity="1.000000" stroke="none" 
	d="
M54.000011,67.000000 
	C36.000011,67.000000 18.500011,67.000000 1.000010,67.000000 
	C1.000007,45.000008 1.000007,23.000015 1.000003,1.000016 
	C27.333323,1.000011 53.666645,1.000011 79.999977,1.000005 
	C79.999985,22.999987 79.999985,44.999973 79.999992,66.999985 
	C71.500008,67.000000 63.000011,67.000000 54.000011,67.000000 
M54.143646,3.723774 
	C39.831768,3.722485 25.519503,3.659300 11.208192,3.748885 
	C5.064443,3.787343 2.236072,6.574552 2.205123,12.531075 
	C2.130762,26.842585 2.133142,41.154984 2.204392,55.466522 
	C2.233303,61.273567 4.967322,64.184715 10.700378,64.233398 
	C25.177624,64.356346 39.657246,64.356430 54.134560,64.238960 
	C60.154049,64.190125 62.743923,61.301620 62.812077,55.141506 
	C62.860886,50.729366 62.821564,46.316254 62.821564,40.562714 
	C68.116653,45.793999 72.437866,50.063141 77.390625,54.956223 
	C77.390625,40.404896 77.390625,27.255146 77.390625,14.105395 
	C76.871902,13.726266 76.353188,13.347137 75.834465,12.968009 
	C71.938858,17.600821 68.043251,22.233633 64.147644,26.866446 
	C63.705551,26.598612 63.263454,26.330778 62.821358,26.062944 
	C62.821358,21.633772 62.862537,17.204123 62.811100,12.775549 
	C62.744267,7.021202 60.913284,4.936192 54.143646,3.723774 
z"/>
<path fill="#F6F9FE" opacity="1.000000" stroke="none" 
	d="
M54.594498,3.743407 
	C60.913284,4.936192 62.744267,7.021202 62.811100,12.775549 
	C62.862537,17.204123 62.821358,21.633772 62.821358,26.062944 
	C63.263454,26.330778 63.705551,26.598612 64.147644,26.866446 
	C68.043251,22.233633 71.938858,17.600821 75.834465,12.968009 
	C76.353188,13.347137 76.871902,13.726266 77.390625,14.105395 
	C77.390625,27.255146 77.390625,40.404896 77.390625,54.956223 
	C72.437866,50.063141 68.116653,45.793999 62.821564,40.562714 
	C62.821564,46.316254 62.860886,50.729366 62.812077,55.141506 
	C62.743923,61.301620 60.154049,64.190125 54.134560,64.238960 
	C39.657246,64.356430 25.177624,64.356346 10.700378,64.233398 
	C4.967322,64.184715 2.233303,61.273567 2.204392,55.466522 
	C2.133142,41.154984 2.130762,26.842585 2.205123,12.531075 
	C2.236072,6.574552 5.064443,3.787343 11.208192,3.748885 
	C25.519503,3.659300 39.831768,3.722485 54.594498,3.743407 
M54.141113,12.652212 
	C52.544609,12.404081 50.949242,11.949688 49.351421,11.940917 
	C38.024563,11.878739 26.697176,11.896040 15.370031,11.921413 
	C13.786704,11.924961 12.203785,12.111070 10.562427,12.216409 
	C10.562427,26.989458 10.562427,41.249126 10.562427,55.784622 
	C25.213732,55.784622 39.595634,55.784622 54.372101,55.784622 
	C54.372101,41.523975 54.372101,27.567274 54.141113,12.652212 
z"/>
<path fill="#1D78E4" opacity="1.000000" stroke="none" 
	d="
M54.256607,13.131393 
	C54.372101,27.567274 54.372101,41.523975 54.372101,55.784622 
	C39.595634,55.784622 25.213732,55.784622 10.562427,55.784622 
	C10.562427,41.249126 10.562427,26.989458 10.562427,12.216409 
	C12.203785,12.111070 13.786704,11.924961 15.370031,11.921413 
	C26.697176,11.896040 38.024563,11.878739 49.351421,11.940917 
	C50.949242,11.949688 52.544609,12.404081 54.256607,13.131393 
M43.360374,30.005880 
	C41.259682,30.005880 39.158985,30.005880 36.479462,30.005880 
	C36.479462,25.985174 36.479462,22.605999 36.479462,19.327408 
	C33.482220,19.327408 31.078936,19.327408 28.070259,19.327408 
	C28.070259,23.035742 28.070259,26.407879 28.070259,30.145027 
	C24.188519,30.145027 20.929129,30.145027 17.510616,30.145027 
	C17.510616,32.918831 17.510616,35.281868 17.510616,38.186005 
	C21.257811,38.186005 24.652433,38.186005 28.435764,38.186005 
	C28.435764,42.005775 28.435764,45.278534 28.435764,48.780731 
	C31.261543,48.780731 33.682007,48.780731 36.458553,48.780731 
	C36.625340,45.247616 36.785717,41.850231 36.969505,37.957008 
	C40.662941,37.957008 44.063969,37.957008 48.901131,37.957008 
	C46.275105,35.013474 51.254665,29.971661 43.360374,30.005880 
z"/>
<path fill="#F3F8FE" opacity="1.000000" stroke="none" 
	d="
M43.826305,30.006290 
	C51.254665,29.971661 46.275105,35.013474 48.901131,37.957008 
	C44.063969,37.957008 40.662941,37.957008 36.969505,37.957008 
	C36.785717,41.850231 36.625340,45.247616 36.458553,48.780731 
	C33.682007,48.780731 31.261543,48.780731 28.435764,48.780731 
	C28.435764,45.278534 28.435764,42.005775 28.435764,38.186005 
	C24.652433,38.186005 21.257811,38.186005 17.510616,38.186005 
	C17.510616,35.281868 17.510616,32.918831 17.510616,30.145027 
	C20.929129,30.145027 24.188519,30.145027 28.070259,30.145027 
	C28.070259,26.407879 28.070259,23.035742 28.070259,19.327408 
	C31.078936,19.327408 33.482220,19.327408 36.479462,19.327408 
	C36.479462,22.605999 36.479462,25.985174 36.479462,30.005880 
	C39.158985,30.005880 41.259682,30.005880 43.826305,30.006290 
z"/>
</svg>