<?xml version="1.0" standalone="no"?>
<!DOCTYPE svg PUBLIC "-//W3C//DTD SVG 20010904//EN"
 "http://www.w3.org/TR/2001/REC-SVG-20010904/DTD/svg10.dtd">
<svg version="1.0" xmlns="http://www.w3.org/2000/svg"
 width="63.000000pt" height="28.000000pt" viewBox="0 0 63.000000 28.000000"
 preserveAspectRatio="xMidYMid meet">

<g transform="translate(0.000000,28.000000) scale(0.100000,-0.100000)"
fill="#000000" stroke="none">
<path d="M191 225 c-62 -23 -124 -65 -145 -98 -9 -14 -3 -25 31 -58 l41 -42
49 35 c42 30 49 39 53 79 5 44 5 44 53 53 26 4 68 4 95 0 47 -9 47 -9 50 -51
3 -35 9 -47 40 -71 61 -47 61 -47 103 -6 21 21 39 44 39 51 0 22 -108 94 -171
114 -81 25 -159 24 -238 -6z m-21 -84 c0 -27 -39 -54 -57 -39 -11 9 -10 15 8
35 27 28 49 30 49 4z m349 -4 c19 -21 20 -25 6 -37 -13 -11 -19 -10 -35 5 -23
20 -27 55 -7 55 8 0 23 -11 36 -23z"/>
</g>
</svg>
