<?xml version="1.0" standalone="no"?>
<!DOCTYPE svg PUBLIC "-//W3C//DTD SVG 20010904//EN"
 "http://www.w3.org/TR/2001/REC-SVG-20010904/DTD/svg10.dtd">
<svg version="1.0" xmlns="http://www.w3.org/2000/svg"
 width="61.000000pt" height="56.000000pt" viewBox="0 0 61.000000 56.000000"
 preserveAspectRatio="xMidYMid meet">

<g transform="translate(0.000000,56.000000) scale(0.100000,-0.100000)"
fill="#000000" stroke="none">
<path d="M36 488 c-23 -33 -23 -403 0 -436 15 -22 18 -22 264 -22 246 0 249 0
264 22 13 19 16 57 16 218 0 161 -3 199 -16 218 -15 22 -18 22 -264 22 -246 0
-249 0 -264 -22z m484 -218 l0 -180 -220 0 -220 0 0 180 0 180 220 0 220 0 0
-180z"/>
<path d="M122 358 c-16 -16 -16 -160 0 -176 16 -16 130 -16 146 0 7 7 12 22
12 35 0 17 -6 23 -23 23 -13 0 -28 -5 -34 -11 -6 -6 -21 -9 -34 -7 -21 3 -24
8 -24 48 0 40 3 45 24 48 13 2 28 -1 34 -7 6 -6 21 -11 34 -11 17 0 23 6 23
23 0 36 -19 47 -85 47 -34 0 -66 -5 -73 -12z"/>
<path d="M338 359 c-15 -8 -18 -24 -18 -87 0 -47 5 -83 12 -90 16 -16 130 -16
146 0 7 7 12 22 12 35 0 17 -6 23 -23 23 -13 0 -28 -5 -34 -11 -6 -6 -21 -9
-34 -7 -21 3 -24 8 -24 48 0 40 3 45 24 48 13 2 28 -1 34 -7 6 -6 21 -11 34
-11 17 0 23 6 23 23 0 13 -5 28 -12 35 -15 15 -116 15 -140 1z"/>
</g>
</svg>
