<?xml version="1.0" standalone="no"?>
<!DOCTYPE svg PUBLIC "-//W3C//DTD SVG 20010904//EN"
 "http://www.w3.org/TR/2001/REC-SVG-20010904/DTD/svg10.dtd">
<svg version="1.0" xmlns="http://www.w3.org/2000/svg"
 width="42.000000pt" height="42.000000pt" viewBox="0 0 42.000000 42.000000"
 preserveAspectRatio="xMidYMid meet">

<g transform="translate(0.000000,42.000000) scale(0.100000,-0.100000)"
fill="#000000" stroke="none">
<path d="M26 378 c-13 -18 -16 -55 -16 -195 0 -95 4 -173 8 -173 4 0 26 18 47
40 l39 40 137 0 c173 0 169 -4 169 155 0 162 9 155 -200 155 -163 0 -169 -1
-184 -22z m324 -138 l0 -110 -140 0 -140 0 0 110 0 110 140 0 140 0 0 -110z"/>
<path d="M90 300 c0 -19 7 -20 120 -20 113 0 120 1 120 20 0 19 -7 20 -120 20
-113 0 -120 -1 -120 -20z"/>
<path d="M90 245 l0 -25 120 0 120 0 0 25 0 25 -120 0 -120 0 0 -25z"/>
<path d="M90 185 c0 -25 1 -25 80 -25 79 0 80 0 80 25 0 25 -1 25 -80 25 -79
0 -80 0 -80 -25z"/>
</g>
</svg>
