<?xml version="1.0" standalone="no"?>
<!DOCTYPE svg PUBLIC "-//W3C//DTD SVG 20010904//EN"
 "http://www.w3.org/TR/2001/REC-SVG-20010904/DTD/svg10.dtd">
<svg version="1.0" xmlns="http://www.w3.org/2000/svg"
 width="50.000000pt" height="56.000000pt" viewBox="0 0 50.000000 56.000000"
 preserveAspectRatio="xMidYMid meet">

<g transform="translate(0.000000,56.000000) scale(0.100000,-0.100000)"
fill="#000000" stroke="none">
<path d="M148 519 c-16 -9 -18 -29 -18 -195 l0 -184 26 -10 c14 -6 78 -10 142
-10 170 0 162 -11 162 205 0 217 10 205 -170 205 -69 0 -133 -5 -142 -11z
m272 -194 l0 -155 -125 0 -125 0 0 155 0 155 125 0 125 0 0 -155z"/>
<path d="M40 226 c0 -136 3 -167 16 -180 13 -13 43 -16 175 -16 l159 0 0 25 0
25 -155 0 -155 0 0 155 c0 148 -1 155 -20 155 -19 0 -20 -7 -20 -164z"/>
</g>
</svg>
