<?xml version="1.0" standalone="no"?>
<!DOCTYPE svg PUBLIC "-//W3C//DTD SVG 20010904//EN"
 "http://www.w3.org/TR/2001/REC-SVG-20010904/DTD/svg10.dtd">
<svg version="1.0" xmlns="http://www.w3.org/2000/svg"
 width="112.000000pt" height="105.000000pt" viewBox="0 0 112.000000 105.000000"
 preserveAspectRatio="xMidYMid meet">

<g transform="translate(0.000000,105.000000) scale(0.100000,-0.100000)"
 stroke="none">
<path d="M135 1001 c-11 -5 -29 -19 -40 -31 -19 -21 -20 -38 -23 -489 l-3
-466 98 98 98 97 368 0 367 0 32 29 33 29 0 341 0 341 -28 27 -27 28 -428 2
c-235 1 -436 -2 -447 -6z m835 -391 l0 -300 -368 0 -369 0 -23 -25 c-13 -14
-27 -25 -32 -25 -4 0 -8 146 -8 325 l0 325 400 0 400 0 0 -300z"/>
<path d="M520 710 l0 -100 50 0 50 0 0 100 0 100 -50 0 -50 0 0 -100z"/>
<path d="M520 460 l0 -50 50 0 50 0 0 50 0 50 -50 0 -50 0 0 -50z"/>
</g>
</svg>
