<?xml version="1.0" standalone="no"?>
<!DOCTYPE svg PUBLIC "-//W3C//DTD SVG 20010904//EN"
 "http://www.w3.org/TR/2001/REC-SVG-20010904/DTD/svg10.dtd">
<svg version="1.0" xmlns="http://www.w3.org/2000/svg"
 width="64.000000pt" height="64.000000pt" viewBox="0 0 64.000000 64.000000"
 preserveAspectRatio="xMidYMid meet">

<g transform="translate(0.000000,64.000000) scale(0.100000,-0.100000)"
fill="#000000" stroke="none">
<path d="M224 611 c-87 -30 -149 -84 -186 -166 -32 -70 -32 -180 0 -250 110
-240 454 -240 564 0 32 70 32 180 0 250 -37 81 -95 133 -185 166 -63 23 -125
23 -193 0z m181 -70 c122 -55 176 -165 140 -287 -30 -106 -113 -168 -225 -168
-226 0 -322 269 -149 418 64 54 162 70 234 37z"/>
<path d="M182 428 c-15 -15 -15 -51 0 -66 28 -28 78 -7 78 33 0 27 -18 45 -45
45 -12 0 -26 -5 -33 -12z"/>
<path d="M392 428 c-28 -28 -7 -78 33 -78 12 0 26 5 33 12 28 28 7 78 -33 78
-12 0 -26 -5 -33 -12z"/>
<path d="M160 251 c0 -5 11 -23 25 -39 69 -82 201 -82 270 0 14 16 25 34 25
39 0 5 -69 9 -160 9 -91 0 -160 -4 -160 -9z"/>
</g>
</svg>
