<?xml version="1.0" standalone="no"?>
<!DOCTYPE svg PUBLIC "-//W3C//DTD SVG 20010904//EN"
 "http://www.w3.org/TR/2001/REC-SVG-20010904/DTD/svg10.dtd">
<svg version="1.0" xmlns="http://www.w3.org/2000/svg"
 width="66.000000pt" height="67.000000pt" viewBox="0 0 66.000000 67.000000"
 preserveAspectRatio="xMidYMid meet">

<g transform="translate(0.000000,67.000000) scale(0.100000,-0.100000)"
fill="#000000" stroke="none">
<path d="M260 636 c-96 -20 -171 -81 -212 -171 -32 -70 -32 -180 0 -250 59
-130 196 -200 340 -174 150 27 247 144 247 299 0 156 -97 272 -249 299 -33 6
-62 11 -65 10 -3 0 -31 -6 -61 -13z m-2 -182 c31 -21 26 -63 -9 -83 -24 -13
-29 -13 -53 2 -33 22 -34 60 -4 81 28 20 38 20 66 0z m210 0 c31 -21 26 -63
-9 -83 -24 -13 -29 -13 -53 2 -33 22 -34 60 -4 81 28 20 38 20 66 0z m22 -183
c0 -18 -50 -69 -84 -85 -44 -21 -108 -21 -152 0 -34 16 -84 67 -84 85 0 5 69
9 160 9 91 0 160 -4 160 -9z"/>
</g>
</svg>
