<?xml version="1.0" standalone="no"?>
<!DOCTYPE svg PUBLIC "-//W3C//DTD SVG 20010904//EN"
 "http://www.w3.org/TR/2001/REC-SVG-20010904/DTD/svg10.dtd">
<svg version="1.0" xmlns="http://www.w3.org/2000/svg"
 width="32.000000pt" height="30.000000pt" viewBox="0 0 32.000000 30.000000"
 preserveAspectRatio="xMidYMid meet">

<g transform="translate(0.000000,30.000000) scale(0.100000,-0.100000)"
fill="#000000" stroke="none">
<path d="M70 260 c0 -27 -3 -30 -30 -30 -23 0 -30 -4 -30 -20 0 -18 7 -20 60
-20 l60 0 0 50 c0 49 -1 50 -30 50 -27 0 -30 -3 -30 -30z"/>
<path d="M190 240 l0 -50 60 0 c53 0 60 2 60 20 0 16 -7 20 -30 20 -27 0 -30
3 -30 30 0 27 -3 30 -30 30 -29 0 -30 -1 -30 -50z"/>
<path d="M10 90 c0 -16 7 -20 30 -20 27 0 30 -3 30 -30 0 -27 3 -30 30 -30 29
0 30 1 30 50 l0 50 -60 0 c-53 0 -60 -2 -60 -20z"/>
<path d="M190 60 c0 -49 1 -50 30 -50 27 0 30 3 30 30 0 27 3 30 30 30 23 0
30 4 30 20 0 18 -7 20 -60 20 l-60 0 0 -50z"/>
</g>
</svg>
