<svg enable-background="new 0 0 24 24" focusable="false" viewBox="0 0 24 24"><rect fill="none" height="24" width="24"></rect><g><path d="M12,24c-3.26,0-6.19-1.99-7.4-5.02l-3.03-7.61c-0.31-0.79,0.43-1.58,1.24-1.32l0.79,0.26c0.56,0.18,1.02,0.61,1.24,1.16 L6.25,15H7V3.25C7,2.56,7.56,2,8.25,2C8.94,2,9.5,2.56,9.5,3.25V12h1V1.25C10.5,0.56,11.06,0,11.75,0S13,0.56,13,1.25V12h1V2.75 c0-0.69,0.56-1.25,1.25-1.25s1.25,0.56,1.25,1.25V12h1V5.75c0-0.69,0.56-1.25,1.25-1.25S20,5.06,20,5.75V16 C20,20.42,16.42,24,12,24z"></path></g></svg>
