<?xml version="1.0" encoding="UTF-8"?>
<svg version="1.1" xmlns="http://www.w3.org/2000/svg" width="52" height="63">
<path d="M0 0 C17.16 0 34.32 0 52 0 C52 20.79 52 41.58 52 63 C34.84 63 17.68 63 0 63 C0 42.21 0 21.42 0 0 Z " fill="#D4D4D5" transform="translate(0,0)"/>
<path d="M0 0 C17.16 0 34.32 0 52 0 C52 20.79 52 41.58 52 63 C34.84 63 17.68 63 0 63 C0 42.21 0 21.42 0 0 Z M21 4 C21 4.66 21 5.32 21 6 C19.8553125 6.1546875 19.8553125 6.1546875 18.6875 6.3125 C15.61394707 7.09875773 14.77505973 7.39933109 13 10 C12.78285759 12.81127043 12.71715724 15.3883345 12.8125 18.1875 C12.82603516 18.93708984 12.83957031 19.68667969 12.85351562 20.45898438 C12.88881461 22.30629767 12.94262083 24.15324066 13 26 C12.34 25.67 11.68 25.34 11 25 C7.5 24.66666667 7.5 24.66666667 4 25 C1.71631996 27.7688269 1.71631996 27.7688269 2.16796875 30.65234375 C3.19869351 34.79943821 4.67157025 38.62358058 6.3125 42.5625 C6.60833984 43.30435547 6.90417969 44.04621094 7.20898438 44.81054688 C10.16140256 51.97159574 13.63018145 56.44418856 20.5703125 60.05078125 C26.4329714 62.34117693 32.43664691 61.53646925 38.1484375 59.1015625 C43.4202635 55.96515969 46.35619792 51.17147869 48.39135742 45.47290039 C49.65812614 40.32604906 49.51181317 35.08412794 49.5 29.8125 C49.54253906 28.06936523 49.54253906 28.06936523 49.5859375 26.29101562 C49.81695731 19.44732607 49.81695731 19.44732607 46.65625 13.69921875 C44.10435033 11.73056104 44.10435033 11.73056104 41 12 C40.87625 11.21625 40.7525 10.4325 40.625 9.625 C40.20882007 6.85942178 40.20882007 6.85942178 38 5 C37.01 4.67 36.02 4.34 35 4 C32 3 32 3 30 1 C25.97787396 0.47077289 23.91901105 1.18910047 21 4 Z " fill="#343638" transform="translate(0,0)"/>
<path d="M0 0 C0.66 0 1.32 0 2 0 C2 8.25 2 16.5 2 25 C3.98 25 5.96 25 8 25 C8 18.07 8 11.14 8 4 C8.66 4 9.32 4 10 4 C10 10.93 10 17.86 10 25 C11.65 25 13.3 25 15 25 C15 20.38 15 15.76 15 11 C15.66 11 16.32 11 17 11 C17.09941096 15.0200263 17.17172063 19.03956963 17.21972656 23.06054688 C17.23975319 24.42623368 17.26698332 25.79183569 17.30175781 27.15722656 C17.35066432 29.12787102 17.37091347 31.09915983 17.390625 33.0703125 C17.41157227 34.25383301 17.43251953 35.43735352 17.45410156 36.65673828 C16.79583293 41.50315259 14.57374513 44.61701185 10.9375 47.8125 C6.84881258 50.31846971 2.66731293 50.60057335 -2 50 C-6.82648724 48.38468371 -9.71875829 45.81248342 -12.0234375 41.203125 C-12.34570312 40.47609375 -12.66796875 39.7490625 -13 39 C-13.44601563 38.00484375 -13.89203125 37.0096875 -14.3515625 35.984375 C-18 27.54608939 -18 27.54608939 -18 24 C-15 25 -15 25 -13.8125 27.375 C-13 30 -13 30 -13 33 C-11.02 33 -9.04 33 -7 33 C-7 23.76 -7 14.52 -7 5 C-6.34 5 -5.68 5 -5 5 C-5 11.6 -5 18.2 -5 25 C-3.35 25 -1.7 25 0 25 C0 16.75 0 8.5 0 0 Z " fill="#353739" transform="translate(26,6)"/>
</svg>
