<?xml version="1.0" standalone="no"?>
<!DOCTYPE svg PUBLIC "-//W3C//DTD SVG 20010904//EN"
 "http://www.w3.org/TR/2001/REC-SVG-20010904/DTD/svg10.dtd">
<svg version="1.0" xmlns="http://www.w3.org/2000/svg"
 width="80.000000pt" height="99.000000pt" viewBox="0 0 80.000000 99.000000"
 preserveAspectRatio="xMidYMid meet">

<g transform="translate(0.000000,99.000000) scale(0.100000,-0.100000)"
fill="#000000" stroke="none">
<path d="M397 962 c-15 -16 -17 -48 -17 -240 0 -215 -1 -222 -20 -222 -19 0
-20 7 -20 183 0 165 -2 186 -18 200 -24 22 -45 21 -65 -1 -15 -16 -17 -49 -17
-261 0 -216 -2 -242 -16 -239 -9 2 -30 37 -49 82 -29 71 -37 82 -73 99 -42 21
-68 18 -78 -8 -7 -17 114 -327 150 -383 29 -47 83 -95 139 -124 59 -32 182
-32 249 -1 75 34 142 104 172 179 25 63 26 70 26 303 0 218 -2 239 -18 254
-24 22 -45 21 -65 -1 -14 -15 -17 -42 -17 -150 0 -125 -1 -132 -20 -132 -19 0
-20 7 -20 193 0 175 -2 196 -18 210 -24 22 -45 21 -65 -1 -15 -16 -17 -46 -17
-210 0 -185 -1 -192 -20 -192 -19 0 -20 7 -20 223 0 204 -2 225 -18 240 -24
22 -45 21 -65 -1z"/>
</g>
</svg>
