<?xml version="1.0" standalone="no"?>
<!DOCTYPE svg PUBLIC "-//W3C//DTD SVG 20010904//EN"
 "http://www.w3.org/TR/2001/REC-SVG-20010904/DTD/svg10.dtd">
<svg version="1.0" xmlns="http://www.w3.org/2000/svg"
 width="66.000000pt" height="75.000000pt" viewBox="0 0 66.000000 75.000000"
 preserveAspectRatio="xMidYMid meet">

<g transform="translate(0.000000,75.000000) scale(0.100000,-0.100000)"
fill="#000000" stroke="none">
<path d="M277 710 c-14 -11 -30 -20 -36 -20 -27 0 -62 -26 -73 -56 -7 -20 -20
-35 -34 -38 -51 -13 -54 -25 -54 -207 0 -187 5 -210 61 -274 99 -112 273 -111
370 4 48 55 59 98 59 228 0 120 -6 134 -62 148 -27 7 -28 9 -28 76 0 59 -3 70
-22 83 -12 9 -29 16 -36 16 -8 0 -27 14 -42 30 -33 35 -67 38 -103 10z m63
-170 l0 -130 30 0 30 0 0 101 c0 76 3 100 13 97 8 -3 13 -41 15 -133 l3 -128
-34 -28 c-58 -48 -74 -119 -27 -119 13 0 25 12 35 36 10 23 25 40 45 47 29 11
30 14 30 68 0 61 7 89 21 89 5 0 9 -47 9 -105 0 -86 -4 -113 -20 -145 -43 -84
-153 -122 -242 -82 -59 26 -96 75 -108 145 -15 76 -9 279 8 285 9 3 12 -17 12
-77 l0 -81 30 0 29 0 3 123 c4 154 22 164 26 15 l3 -108 29 0 30 0 0 130 c0
109 2 130 15 130 13 0 15 -21 15 -130z"/>
</g>
</svg>
