<?xml version="1.0" encoding="UTF-8"?>
<svg version="1.1" xmlns="http://www.w3.org/2000/svg" width="52" height="66">
<path d="M0 0 C17.16 0 34.32 0 52 0 C52 21.78 52 43.56 52 66 C34.84 66 17.68 66 0 66 C0 44.22 0 22.44 0 0 Z " fill="#A3C3F3" transform="translate(0,0)"/>
<path d="M0 0 C1.32 0.33 2.64 0.66 4 1 C4 10.57 4 20.14 4 30 C4.99 30 5.98 30 7 30 C7 21.75 7 13.5 7 5 C8.65 4.67 10.3 4.34 12 4 C13 5 13 5 13.11352539 7.40844727 C13.10828857 8.45057373 13.10305176 9.4927002 13.09765625 10.56640625 C13.09443359 11.69111328 13.09121094 12.81582031 13.08789062 13.97460938 C13.07532227 15.75061523 13.07532227 15.75061523 13.0625 17.5625 C13.05798828 18.75037109 13.05347656 19.93824219 13.04882812 21.16210938 C13.03699675 24.10812226 13.02051287 27.05403681 13 30 C13.99 30 14.98 30 16 30 C15.98839844 28.79601562 15.97679687 27.59203125 15.96484375 26.3515625 C15.95546566 24.77604321 15.94636548 23.20052225 15.9375 21.625 C15.92912109 20.8309375 15.92074219 20.036875 15.91210938 19.21875 C15.88671875 13.2265625 15.88671875 13.2265625 17 11 C20.875 11.875 20.875 11.875 22 13 C22.26839885 17.27068838 22.27144711 21.5475677 22.29516602 25.82568359 C22.31221216 27.96389397 22.35604939 30.10048896 22.40039062 32.23828125 C22.50051285 41.03421855 22.08392372 48.68919163 15.75 55.375 C9.55154738 59.03772201 3.2676802 61.4238215 -4 60 C-11.2524275 57.33061912 -14.54831742 52.13725807 -17.67041016 45.39819336 C-18.4637682 43.60615146 -19.23230707 41.80318571 -20 40 C-20.44730469 39.02417969 -20.89460938 38.04835937 -21.35546875 37.04296875 C-23.36766357 32.46230683 -24.32592246 29.96348603 -23 25 C-20.75 25.125 -20.75 25.125 -18 26 C-15.24007182 29.469624 -13.63179561 32.92051097 -12 37 C-11.34 37.33 -10.68 37.66 -10 38 C-10 27.44 -10 16.88 -10 6 C-8.68 5.67 -7.36 5.34 -6 5 C-4 7 -4 7 -3.77294922 9.33837891 C-3.78342285 10.29147949 -3.79389648 11.24458008 -3.8046875 12.2265625 C-3.81113281 13.2578125 -3.81757813 14.2890625 -3.82421875 15.3515625 C-3.84097656 16.43179687 -3.85773437 17.51203125 -3.875 18.625 C-3.88402344 19.71296875 -3.89304687 20.8009375 -3.90234375 21.921875 C-3.92596591 24.61480152 -3.95890444 27.30729255 -4 30 C-3.34 30 -2.68 30 -2 30 C-2.01047363 29.16227051 -2.02094727 28.32454102 -2.03173828 27.46142578 C-2.06580019 24.35661836 -2.09088911 21.25190608 -2.10986328 18.14697266 C-2.12488107 16.1408864 -2.15028981 14.13488676 -2.17578125 12.12890625 C-2.18222656 10.87207031 -2.18867188 9.61523438 -2.1953125 8.3203125 C-2.20578613 7.15773926 -2.21625977 5.99516602 -2.22705078 4.79736328 C-2 2 -2 2 0 0 Z " fill="#08326F" transform="translate(26,3)"/>
</svg>
