<?xml version="1.0" standalone="no"?>
<!DOCTYPE svg PUBLIC "-//W3C//DTD SVG 20010904//EN"
 "http://www.w3.org/TR/2001/REC-SVG-20010904/DTD/svg10.dtd">
<svg version="1.0" xmlns="http://www.w3.org/2000/svg"
 width="102.000000pt" height="126.000000pt" viewBox="0 0 102.000000 126.000000"
 preserveAspectRatio="xMidYMid meet">

<g transform="translate(0.000000,126.000000) scale(0.100000,-0.100000)"
fill="#000000" stroke="none">
<path d="M464 1205 c-18 -14 -35 -36 -38 -50 -5 -20 -13 -25 -37 -25 -16 0
-43 -7 -59 -15 -52 -27 -60 -57 -60 -235 0 -136 -2 -160 -15 -160 -8 0 -15 4
-15 9 0 13 -57 31 -101 31 -50 0 -99 -47 -99 -94 0 -30 79 -243 143 -389 34
-76 125 -171 202 -210 51 -26 74 -31 158 -35 83 -4 106 -1 160 18 117 42 212
138 251 253 13 40 16 97 16 336 0 277 -1 289 -21 315 -25 32 -69 56 -104 56
-22 0 -25 4 -25 34 0 58 -64 116 -128 116 -19 0 -39 11 -62 35 -30 31 -40 35
-84 35 -39 0 -58 -6 -82 -25z m104 -328 l2 -247 50 0 50 0 2 213 c3 204 4 212
23 212 19 0 20 -8 23 -212 l2 -213 50 0 49 0 3 138 c3 129 4 137 23 137 19 0
20 -8 23 -273 2 -255 1 -276 -18 -318 -32 -73 -74 -118 -144 -153 -60 -31 -70
-33 -148 -29 -129 5 -219 61 -274 171 -37 71 -145 349 -139 355 3 3 20 -1 38
-10 26 -12 38 -29 62 -89 l31 -74 47 -3 47 -3 2 273 c3 265 4 273 23 273 19 0
20 -8 23 -197 l2 -198 50 0 50 0 0 243 c0 134 3 247 7 251 4 4 14 5 23 4 13
-3 15 -37 18 -251z"/>
</g>
</svg>
