<?xml version="1.0" standalone="no"?>
<!DOCTYPE svg PUBLIC "-//W3C//DTD SVG 20010904//EN"
 "http://www.w3.org/TR/2001/REC-SVG-20010904/DTD/svg10.dtd">
<svg version="1.0" xmlns="http://www.w3.org/2000/svg"
 width="111.000000pt" height="107.000000pt" viewBox="0 0 111.000000 107.000000"
 preserveAspectRatio="xMidYMid meet">

<g transform="translate(0.000000,107.000000) scale(0.100000,-0.100000)"
 stroke="none">
<path d="M454 1025 c-125 -27 -238 -104 -305 -208 -111 -171 -111 -383 0 -554
101 -157 303 -245 488 -214 245 42 416 244 416 491 0 239 -159 436 -392 486
-80 17 -127 17 -207 -1z m277 -123 c80 -38 159 -118 197 -199 24 -52 27 -70
27 -163 0 -93 -3 -111 -27 -163 -38 -80 -117 -161 -197 -200 -62 -30 -73 -32
-171 -32 -98 0 -109 2 -171 32 -80 39 -159 120 -197 200 -40 85 -40 241 0 326
50 105 162 200 271 228 18 4 71 7 118 5 71 -3 97 -9 150 -34z"/>
<path d="M490 824 c-65 -28 -110 -84 -123 -151 l-6 -33 48 0 c46 0 49 2 54 30
7 33 57 70 95 70 31 0 79 -26 92 -49 5 -11 10 -35 10 -55 0 -30 -8 -41 -50
-78 -58 -49 -85 -88 -93 -135 l-6 -33 48 0 c46 0 49 2 54 30 4 18 28 50 61 82
31 29 62 70 71 91 35 84 -19 191 -117 231 -47 20 -93 20 -138 0z"/>
<path d="M510 290 l0 -50 50 0 50 0 0 50 0 50 -50 0 -50 0 0 -50z"/>
</g>
</svg>
