<?xml version="1.0" standalone="no"?>
<!DOCTYPE svg PUBLIC "-//W3C//DTD SVG 20010904//EN"
 "http://www.w3.org/TR/2001/REC-SVG-20010904/DTD/svg10.dtd">
<svg version="1.0" xmlns="http://www.w3.org/2000/svg"
 width="41.000000pt" height="45.000000pt" viewBox="0 0 41.000000 45.000000"
 preserveAspectRatio="xMidYMid meet">

<g transform="translate(0.000000,45.000000) scale(0.100000,-0.100000)"
fill="#000000" stroke="none">
<path d="M145 429 c-40 -12 -65 -46 -65 -91 0 -30 -4 -38 -18 -38 -35 0 -42
-21 -42 -131 0 -134 4 -139 101 -139 38 0 69 3 69 6 0 3 -5 14 -10 25 -8 14
-21 19 -55 19 l-45 0 0 90 0 90 100 0 c82 0 100 -3 100 -15 0 -10 10 -15 30
-15 25 0 30 4 30 23 0 28 -17 47 -42 47 -14 0 -18 8 -18 35 0 46 -23 81 -62
94 -35 12 -33 12 -73 0z m69 -61 c9 -12 16 -33 16 -45 0 -21 -5 -23 -50 -23
-45 0 -50 2 -50 23 0 31 27 67 50 67 10 0 26 -10 34 -22z"/>
<path d="M225 187 c-17 -14 -28 -36 -32 -63 -4 -33 -1 -45 21 -71 33 -39 73
-49 119 -29 43 17 57 41 57 94 0 33 -6 45 -31 66 -40 34 -97 35 -134 3z m93
-40 c4 -20 -25 -34 -40 -19 -15 15 -1 44 19 40 10 -2 19 -11 21 -21z m22 -71
c0 -8 -9 -18 -21 -21 -29 -9 -69 2 -69 20 0 11 12 15 45 15 32 0 45 -4 45 -14z"/>
</g>
</svg>
