<?xml version="1.0" standalone="no"?>
<!DOCTYPE svg PUBLIC "-//W3C//DTD SVG 20010904//EN"
 "http://www.w3.org/TR/2001/REC-SVG-20010904/DTD/svg10.dtd">
<svg version="1.0" xmlns="http://www.w3.org/2000/svg"
 width="48.000000pt" height="48.000000pt" viewBox="0 0 48.000000 48.000000"
 preserveAspectRatio="xMidYMid meet">

<g transform="translate(0.000000,48.000000) scale(0.100000,-0.100000)"
fill="#000000" stroke="none">
<path d="M166 456 c-135 -50 -192 -197 -127 -324 37 -71 119 -121 201 -122 52
0 134 35 167 71 34 37 63 110 63 159 0 50 -29 122 -63 158 -55 59 -166 86
-241 58z m154 -58 c132 -67 132 -249 0 -316 -56 -28 -104 -28 -160 0 -132 67
-132 249 0 316 24 12 60 22 80 22 20 0 56 -10 80 -22z"/>
<path d="M220 320 c0 -13 7 -20 20 -20 13 0 20 7 20 20 0 13 -7 20 -20 20 -13
0 -20 -7 -20 -20z"/>
<path d="M220 200 c0 -63 2 -70 20 -70 18 0 20 7 20 70 0 63 -2 70 -20 70 -18
0 -20 -7 -20 -70z"/>
</g>
</svg>
