<?xml version="1.0" standalone="no"?>
<!DOCTYPE svg PUBLIC "-//W3C//DTD SVG 20010904//EN"
 "http://www.w3.org/TR/2001/REC-SVG-20010904/DTD/svg10.dtd">
<svg version="1.0" xmlns="http://www.w3.org/2000/svg"
 width="66.000000pt" height="46.000000pt" viewBox="0 0 66.000000 46.000000"
 preserveAspectRatio="xMidYMid meet">

<g transform="translate(0.000000,46.000000) scale(0.100000,-0.100000)"
fill="#000000" stroke="none">
<path d="M218 424 c-30 -16 -58 -61 -58 -94 0 -53 57 -110 110 -110 53 0 110
57 110 110 0 34 -28 78 -60 95 -36 19 -67 19 -102 -1z m92 -54 c11 -11 20 -29
20 -40 0 -26 -34 -60 -60 -60 -26 0 -60 34 -60 60 0 11 9 29 20 40 11 11 29
20 40 20 11 0 29 -9 40 -20z"/>
<path d="M500 335 c0 -33 -2 -35 -35 -35 -32 0 -35 -2 -35 -30 0 -28 3 -30 35
-30 33 0 35 -2 35 -35 0 -31 3 -35 25 -35 22 0 25 4 25 35 0 33 2 35 35 35 32
0 35 2 35 30 0 28 -3 30 -35 30 -33 0 -35 2 -35 35 0 31 -3 35 -25 35 -22 0
-25 -4 -25 -35z"/>
<path d="M192 181 c-86 -25 -112 -51 -112 -113 l0 -48 195 0 195 0 0 48 c0 63
-26 88 -117 113 -80 23 -81 23 -161 0z m196 -61 c23 -11 42 -26 42 -34 0 -14
-21 -16 -155 -16 -133 0 -155 2 -155 16 0 15 47 40 105 55 41 10 111 1 163
-21z"/>
</g>
</svg>
