<?xml version="1.0" standalone="no"?>
<!DOCTYPE svg PUBLIC "-//W3C//DTD SVG 20010904//EN"
 "http://www.w3.org/TR/2001/REC-SVG-20010904/DTD/svg10.dtd">
<svg version="1.0" xmlns="http://www.w3.org/2000/svg"
 width="104.000000pt" height="77.000000pt" viewBox="0 0 104.000000 77.000000"
 preserveAspectRatio="xMidYMid meet">

<g transform="translate(0.000000,77.000000) scale(0.100000,-0.100000)"
fill="#000000" stroke="none">
<path d="M80 717 c-14 -7 -33 -28 -43 -47 -16 -31 -17 -62 -15 -300 3 -236 5
-269 21 -293 10 -16 29 -32 43 -37 40 -16 843 -13 874 3 14 7 33 28 43 47 16
31 17 62 15 300 -3 236 -5 269 -21 293 -10 16 -29 32 -43 37 -40 16 -843 13
-874 -3z m190 -187 l0 -50 -50 0 -50 0 0 50 0 50 50 0 50 0 0 -50z m150 0 l0
-50 -50 0 -50 0 0 50 0 50 50 0 50 0 0 -50z m150 0 l0 -50 -50 0 -50 0 0 50 0
50 50 0 50 0 0 -50z m150 0 l0 -50 -50 0 -50 0 0 50 0 50 50 0 50 0 0 -50z
m150 0 l0 -50 -50 0 -50 0 0 50 0 50 50 0 50 0 0 -50z m-600 -150 l0 -50 -50
0 -50 0 0 50 0 50 50 0 50 0 0 -50z m150 0 l0 -50 -50 0 -50 0 0 50 0 50 50 0
50 0 0 -50z m150 0 l0 -50 -50 0 -50 0 0 50 0 50 50 0 50 0 0 -50z m150 0 l0
-50 -50 0 -50 0 0 50 0 50 50 0 50 0 0 -50z m150 0 l0 -50 -50 0 -50 0 0 50 0
50 50 0 50 0 0 -50z m-150 -200 l0 -50 -200 0 -200 0 0 50 0 50 200 0 200 0 0
-50z"/>
</g>
</svg>
