<svg version="1.1" id="Layer_1" xmlns="http://www.w3.org/2000/svg"
	 width="100%" viewBox="0 0 1870 1482" enable-background="new 0 0 1870 1482" >
<path fill="#ffffff" opacity="1.000000" stroke="none" 
	d="
M1142.000000,1483.000000 
	C761.333435,1483.000000 381.166901,1483.000000 1.000255,1483.000000 
	C1.000170,989.000244 1.000170,495.000519 1.000085,1.000586 
	C624.332886,1.000391 1247.665771,1.000391 1870.999023,1.000196 
	C1870.999268,494.999390 1870.999268,988.998779 1870.999634,1482.999023 
	C1628.166626,1483.000000 1385.333374,1483.000000 1142.000000,1483.000000 
M8.034063,1045.895020 
	C8.022710,1144.865723 8.098250,1243.836426 7.903891,1342.806763 
	C7.875580,1357.223022 8.760064,1371.368286 13.007336,1385.204590 
	C18.215185,1402.170044 26.204458,1417.739990 37.789810,1431.130249 
	C50.865356,1446.242920 66.278839,1458.512573 84.881523,1466.468628 
	C99.145721,1472.569458 113.859909,1476.917114 129.425720,1476.935791 
	C232.894974,1477.059570 336.364441,1477.000122 440.047668,1477.836548 
	C442.188232,1478.224365 444.328735,1478.951538 446.469360,1478.951904 
	C746.798279,1479.002319 1047.127197,1479.016968 1347.456177,1478.916016 
	C1356.166504,1478.913086 1364.985352,1478.313232 1373.564941,1476.869873 
	C1395.578247,1473.166016 1415.152466,1463.598999 1432.069702,1449.233032 
	C1447.459351,1436.164307 1459.769653,1420.457397 1467.699219,1401.654297 
	C1473.742554,1387.323853 1477.947510,1372.503784 1477.963135,1356.838135 
	C1478.042603,1276.672607 1477.999878,1196.507080 1478.000000,1116.341553 
	C1478.000000,1114.460571 1478.000000,1112.579712 1478.000000,1109.848145 
	C1488.314697,1118.598999 1497.693359,1126.629517 1507.153442,1134.562866 
	C1518.884644,1144.400757 1530.707886,1154.128662 1542.444824,1163.959717 
	C1551.419067,1171.476807 1560.287598,1179.120239 1569.263306,1186.635498 
	C1580.874512,1196.357300 1592.560303,1205.989990 1604.186890,1215.693481 
	C1614.940186,1224.668091 1625.644165,1233.701782 1636.394531,1242.679932 
	C1647.893677,1252.283325 1659.448853,1261.820068 1670.928955,1271.446289 
	C1680.149902,1279.178223 1689.261230,1287.041138 1698.483154,1294.771851 
	C1709.965698,1304.397583 1721.537842,1313.916504 1733.022705,1323.539429 
	C1742.246460,1331.267456 1751.353882,1339.134521 1760.592896,1346.844360 
	C1771.584229,1356.016479 1782.861206,1364.856567 1793.650024,1374.258545 
	C1807.300781,1386.154785 1822.372803,1390.037598 1839.686646,1383.973389 
	C1855.762451,1378.342285 1867.994995,1362.682861 1867.995239,1347.609009 
	C1868.000977,944.448242 1868.000488,541.287476 1867.972900,138.126709 
	C1867.972778,136.337952 1867.691895,134.523804 1867.332397,132.764420 
	C1864.280151,117.833229 1855.664185,107.357605 1841.717041,101.354065 
	C1827.337646,95.164398 1811.233276,97.424393 1799.122437,107.401939 
	C1790.600220,114.422974 1782.203857,121.596367 1773.714600,128.657578 
	C1762.326904,138.129700 1750.857422,147.504028 1739.508789,157.022568 
	C1728.267090,166.451462 1717.187866,176.074265 1705.935547,185.490280 
	C1692.555664,196.686539 1679.020020,207.696350 1665.640869,218.893341 
	C1654.388062,228.310760 1643.326538,237.957138 1632.065308,247.364151 
	C1616.781372,260.131134 1601.330811,272.698761 1586.056641,285.477325 
	C1570.761719,298.273224 1555.641846,311.278076 1540.361938,324.092102 
	C1519.671265,341.443726 1498.901001,358.700684 1478.020142,375.068542 
	C1478.013428,297.738342 1477.924927,220.408005 1478.071411,143.078094 
	C1478.099609,128.246582 1477.474854,113.663315 1473.094482,99.309509 
	C1467.863037,82.166451 1459.920044,66.474640 1448.297852,52.971981 
	C1435.248169,37.810940 1419.817993,25.494347 1401.155396,17.553787 
	C1386.830444,11.458794 1372.071655,7.067615 1356.457520,7.063243 
	C1053.135254,6.978325 749.813049,6.999743 446.490784,7.006843 
	C444.328064,7.006893 442.165375,7.111041 439.342346,7.235138 
	C438.739746,7.809093 438.123383,8.369349 437.536499,8.958958 
	C365.526794,81.302711 293.583618,153.712814 221.493225,225.976074 
	C151.604446,296.032440 81.559586,365.933075 11.625692,435.944489 
	C10.207233,437.364471 9.308299,439.303406 8.026209,441.913452 
	C8.017622,641.933289 8.008793,841.953064 8.007085,1041.972900 
	C8.007076,1042.968750 8.107660,1043.964478 8.034063,1045.895020 
z"/>
<path fill="#4CAF50" opacity="1.000000" stroke="none" 
	d="
M1478.164917,375.998230 
	C1498.901001,358.700684 1519.671265,341.443726 1540.361938,324.092102 
	C1555.641846,311.278076 1570.761719,298.273224 1586.056641,285.477325 
	C1601.330811,272.698761 1616.781372,260.131134 1632.065308,247.364151 
	C1643.326538,237.957138 1654.388062,228.310760 1665.640869,218.893341 
	C1679.020020,207.696350 1692.555664,196.686539 1705.935547,185.490280 
	C1717.187866,176.074265 1728.267090,166.451462 1739.508789,157.022568 
	C1750.857422,147.504028 1762.326904,138.129700 1773.714600,128.657578 
	C1782.203857,121.596367 1790.600220,114.422974 1799.122437,107.401939 
	C1811.233276,97.424393 1827.337646,95.164398 1841.717041,101.354065 
	C1855.664185,107.357605 1864.280151,117.833229 1867.332397,132.764420 
	C1867.691895,134.523804 1867.972778,136.337952 1867.972900,138.126709 
	C1868.000488,541.287476 1868.000977,944.448242 1867.995239,1347.609009 
	C1867.994995,1362.682861 1855.762451,1378.342285 1839.686646,1383.973389 
	C1822.372803,1390.037598 1807.300781,1386.154785 1793.650024,1374.258545 
	C1782.861206,1364.856567 1771.584229,1356.016479 1760.592896,1346.844360 
	C1751.353882,1339.134521 1742.246460,1331.267456 1733.022705,1323.539429 
	C1721.537842,1313.916504 1709.965698,1304.397583 1698.483154,1294.771851 
	C1689.261230,1287.041138 1680.149902,1279.178223 1670.928955,1271.446289 
	C1659.448853,1261.820068 1647.893677,1252.283325 1636.394531,1242.679932 
	C1625.644165,1233.701782 1614.940186,1224.668091 1604.186890,1215.693481 
	C1592.560303,1205.989990 1580.874512,1196.357300 1569.263306,1186.635498 
	C1560.287598,1179.120239 1551.419067,1171.476807 1542.444824,1163.959717 
	C1530.707886,1154.128662 1518.884644,1144.400757 1507.153442,1134.562866 
	C1497.693359,1126.629517 1488.314697,1118.598999 1478.000000,1109.848145 
	C1478.000000,1112.579712 1478.000000,1114.460571 1478.000000,1116.341553 
	C1477.999878,1196.507080 1478.042603,1276.672607 1477.963135,1356.838135 
	C1477.947510,1372.503784 1473.742554,1387.323853 1467.699219,1401.654297 
	C1459.769653,1420.457397 1447.459351,1436.164307 1432.069702,1449.233032 
	C1415.152466,1463.598999 1395.578247,1473.166016 1373.564941,1476.869873 
	C1364.985352,1478.313232 1356.166504,1478.913086 1347.456177,1478.916016 
	C1047.127197,1479.016968 746.798279,1479.002319 446.469360,1478.951904 
	C444.328735,1478.951538 442.188232,1478.224365 439.996704,1476.953125 
	C439.963623,1474.904541 439.997131,1473.739136 439.997162,1472.573853 
	C439.999603,1331.538574 439.999878,1190.503296 439.995819,1049.468018 
	C439.995789,1047.970215 439.938202,1046.472290 439.975647,1044.961060 
	C440.043762,1044.947632 440.140228,1045.047607 440.599274,1045.029053 
	C642.622009,1045.010498 844.185669,1045.010498 1046.000000,1045.010498 
	C1046.000000,1042.010132 1046.000000,1039.852905 1046.000000,1037.695679 
	C1046.000000,941.701660 1045.998047,845.707642 1046.011108,749.713623 
	C1046.011475,747.386475 1046.178955,745.059265 1046.364990,742.700928 
	C1046.461670,742.669739 1046.583740,742.832092 1046.808472,743.112061 
	C1066.246460,759.847900 1085.410767,776.361389 1104.685791,792.744629 
	C1127.263184,811.934753 1149.959106,830.985657 1172.563477,850.144348 
	C1197.834839,871.563599 1223.039551,893.061646 1248.313721,914.477600 
	C1271.047485,933.740906 1293.859863,952.911377 1316.594116,972.174133 
	C1341.868896,993.589417 1367.083496,1015.075562 1392.344604,1036.506958 
	C1415.701172,1056.322510 1439.075317,1076.117310 1462.463501,1095.895630 
	C1467.179565,1099.883789 1471.993164,1103.756836 1476.761719,1107.682983 
	C1477.174438,1107.443237 1477.587158,1107.203491 1477.999878,1106.963745 
	C1477.999878,1105.186401 1477.999878,1103.408936 1477.999878,1101.631592 
	C1477.999878,862.504700 1478.001953,623.377808 1477.966797,384.250885 
	C1477.966553,382.127411 1477.468506,380.003998 1477.309937,377.637756 
	C1477.666382,376.929413 1477.915649,376.463837 1478.164917,375.998230 
z"/>
<path fill="#FBC02D" opacity="1.000000" stroke="none" 
	d="
M1478.092529,375.533386 
	C1477.915649,376.463837 1477.666382,376.929413 1476.996094,377.807587 
	C1351.614380,484.082031 1226.646851,589.935791 1101.700439,695.814453 
	C1083.276855,711.426453 1064.953491,727.156616 1046.583740,742.832031 
	C1046.583740,742.832092 1046.461670,742.669739 1046.268311,742.260742 
	C1046.074829,641.623962 1046.074829,541.396118 1046.074829,441.000000 
	C1043.797852,441.000000 1042.308228,441.000000 1040.818481,441.000000 
	C841.858337,441.000031 642.898132,440.999878 443.937988,441.004211 
	C442.606293,441.004211 441.274628,441.066742 439.934509,441.046631 
	C439.926056,440.993103 440.024353,440.947479 440.016357,440.482178 
	C440.006470,295.733429 440.004547,151.449997 440.002655,7.166583 
	C442.165375,7.111041 444.328064,7.006893 446.490784,7.006843 
	C749.813049,6.999743 1053.135254,6.978325 1356.457520,7.063243 
	C1372.071655,7.067615 1386.830444,11.458794 1401.155396,17.553787 
	C1419.817993,25.494347 1435.248169,37.810940 1448.297852,52.971981 
	C1459.920044,66.474640 1467.863037,82.166451 1473.094482,99.309509 
	C1477.474854,113.663315 1478.099609,128.246582 1478.071411,143.078094 
	C1477.924927,220.408005 1478.013428,297.738342 1478.092529,375.533386 
z"/>
<path fill="#1E88E5" opacity="1.000000" stroke="none" 
	d="
M8.161268,1044.960327 
	C8.107660,1043.964478 8.007076,1042.968750 8.007085,1041.972900 
	C8.008793,841.953064 8.017622,641.933289 8.554462,441.456848 
	C66.575073,441.000183 124.067429,441.006378 181.559784,440.998505 
	C267.714630,440.986664 353.869507,440.964966 440.024353,440.947479 
	C440.024353,440.947479 439.926056,440.993103 439.958496,441.508362 
	C439.993988,640.869141 439.996582,839.714661 440.005829,1038.560181 
	C440.005920,1040.722656 440.093506,1042.885132 440.140228,1045.047607 
	C440.140228,1045.047607 440.043762,1044.947632 439.512970,1044.967041 
	C295.375214,1044.977661 151.768234,1044.968994 8.161268,1044.960327 
z"/>
<path fill="#1565C0" opacity="1.000000" stroke="none" 
	d="
M8.097666,1045.427734 
	C151.768234,1044.968994 295.375214,1044.977661 439.444824,1044.980469 
	C439.938202,1046.472290 439.995789,1047.970215 439.995819,1049.468018 
	C439.999878,1190.503296 439.999603,1331.538574 439.997162,1472.573853 
	C439.997131,1473.739136 439.963623,1474.904541 439.889832,1476.535156 
	C336.364441,1477.000122 232.894974,1477.059570 129.425720,1476.935791 
	C113.859909,1476.917114 99.145721,1472.569458 84.881523,1466.468628 
	C66.278839,1458.512573 50.865356,1446.242920 37.789810,1431.130249 
	C26.204458,1417.739990 18.215185,1402.170044 13.007336,1385.204590 
	C8.760064,1371.368286 7.875580,1357.223022 7.903891,1342.806763 
	C8.098250,1243.836426 8.022710,1144.865723 8.097666,1045.427734 
z"/>
<path fill="#E53935" opacity="1.000000" stroke="none" 
	d="
M440.016357,440.482178 
	C353.869507,440.964966 267.714630,440.986664 181.559784,440.998505 
	C124.067429,441.006378 66.575073,441.000183 8.624849,441.000244 
	C9.308299,439.303406 10.207233,437.364471 11.625692,435.944489 
	C81.559586,365.933075 151.604446,296.032440 221.493225,225.976074 
	C293.583618,153.712814 365.526794,81.302711 437.536499,8.958958 
	C438.123383,8.369349 438.739746,7.809093 439.672485,7.200861 
	C440.004547,151.449997 440.006470,295.733429 440.016357,440.482178 
z"/>
<path fill="#ffffff" opacity="1.000000" stroke="none" 
	d="
M440.599274,1045.029053 
	C440.093506,1042.885132 440.005920,1040.722656 440.005829,1038.560181 
	C439.996582,839.714661 439.993988,640.869141 439.966949,441.561890 
	C441.274628,441.066742 442.606293,441.004211 443.937988,441.004211 
	C642.898132,440.999878 841.858337,441.000031 1040.818481,441.000000 
	C1042.308228,441.000000 1043.797852,441.000000 1046.074829,441.000000 
	C1046.074829,541.396118 1046.074829,641.623962 1046.171631,742.291992 
	C1046.178955,745.059265 1046.011475,747.386475 1046.011108,749.713623 
	C1045.998047,845.707642 1046.000000,941.701660 1046.000000,1037.695679 
	C1046.000000,1039.852905 1046.000000,1042.010132 1046.000000,1045.010498 
	C844.185669,1045.010498 642.622009,1045.010498 440.599274,1045.029053 
z"/>
<path fill="#2E7D32" opacity="1.000000" stroke="none" 
	d="
M1046.808472,743.112061 
	C1064.953491,727.156616 1083.276855,711.426453 1101.700439,695.814453 
	C1226.646851,589.935791 1351.614380,484.082031 1476.889038,378.050354 
	C1477.468506,380.003998 1477.966553,382.127411 1477.966797,384.250885 
	C1478.001953,623.377808 1477.999878,862.504700 1477.999878,1101.631592 
	C1477.999878,1103.408936 1477.999878,1105.186401 1477.999878,1106.963745 
	C1477.587158,1107.203491 1477.174438,1107.443237 1476.761719,1107.682983 
	C1471.993164,1103.756836 1467.179565,1099.883789 1462.463501,1095.895630 
	C1439.075317,1076.117310 1415.701172,1056.322510 1392.344604,1036.506958 
	C1367.083496,1015.075562 1341.868896,993.589417 1316.594116,972.174133 
	C1293.859863,952.911377 1271.047485,933.740906 1248.313721,914.477600 
	C1223.039551,893.061646 1197.834839,871.563599 1172.563477,850.144348 
	C1149.959106,830.985657 1127.263184,811.934753 1104.685791,792.744629 
	C1085.410767,776.361389 1066.246460,759.847900 1046.808472,743.112061 
z"/>
</svg>