<svg version="1.1" id="Layer_1" xmlns="http://www.w3.org/2000/svg" xmlns:xlink="http://www.w3.org/1999/xlink" x="0px" y="0px"
	 width="100%" viewBox="0 0 366 315" enable-background="new 0 0 366 315" xml:space="preserve">
<path fill="#4FB053" opacity="1.000000" stroke="none" 
	d="
M330.171600,265.869171 
	C330.116272,278.834045 330.067963,291.798920 330.002319,304.763733 
	C329.973541,310.453247 327.910065,313.247253 322.127686,315.670227 
	C320.611115,316.000000 319.222198,316.000000 317.416656,316.000000 
	C310.960114,311.473206 304.548553,307.356110 298.982330,302.307129 
	C293.141510,297.009033 287.881500,291.007141 282.849518,284.914825 
	C281.062042,282.750641 279.619537,281.691925 276.832947,281.714905 
	C262.507904,281.833282 248.179276,281.927704 233.855820,281.736694 
	C204.481171,281.345001 181.860764,268.343506 165.378464,244.333237 
	C162.771790,240.535995 161.241653,236.199188 164.652908,231.945053 
	C170.214462,225.009277 176.417435,225.728546 181.860641,233.890457 
	C186.576340,240.961472 192.072144,247.262177 199.293091,251.886963 
	C209.245453,258.261108 220.087158,261.919250 231.955109,262.004028 
	C248.778976,262.124207 265.609802,262.310211 282.426086,261.940704 
	C289.188782,261.792145 293.122986,264.753448 296.566895,270.067108 
	C300.213287,275.693207 304.587921,280.847229 308.644501,286.207458 
	C309.174744,286.027130 309.704987,285.846802 310.235229,285.666473 
	C310.235229,278.317993 310.344971,270.967346 310.197662,263.621857 
	C310.094940,258.500427 311.916077,254.621170 317.206970,252.059235 
	C325.277985,252.189819 328.478943,254.272049 329.728729,259.956421 
	C330.148895,261.867401 330.039154,263.894928 330.171600,265.869171 
z"/>
<path fill="#FF5050" opacity="1.000000" stroke="none" 
	d="
M56.090500,257.266815 
	C55.794060,255.524353 55.248714,253.783081 55.240387,252.039246 
	C55.171204,237.548309 55.061394,223.054611 55.302479,208.567368 
	C55.360474,205.081955 54.006794,203.011246 51.500748,201.074844 
	C28.912415,183.621170 15.229749,160.899078 10.977703,132.570953 
	C3.192387,80.703384 31.933285,36.877831 75.686943,17.930313 
	C88.234200,12.496726 101.507889,9.877626 115.262329,10.062823 
	C121.681282,10.149251 125.821259,13.648678 125.986610,19.237890 
	C126.150795,24.787783 121.719353,29.252863 115.674782,29.811029 
	C109.268532,30.402594 102.721687,30.470877 96.501373,31.912029 
	C60.278427,40.304321 34.923862,68.003937 29.902506,105.051491 
	C26.333475,131.383804 33.482800,154.881775 51.263577,174.703873 
	C56.377117,180.404465 62.581711,185.233124 68.746414,189.846390 
	C72.826279,192.899521 75.121895,196.097122 75.039642,201.345718 
	C74.836075,214.334259 74.990746,227.328415 74.908821,241.085083 
	C72.128059,243.968536 69.398880,246.037567 66.761848,248.218048 
	C63.167919,251.189789 59.644279,254.246521 56.090500,257.266815 
z"/>
<path fill="#2497F3" opacity="1.000000" stroke="none" 
	d="
M55.963234,257.580902 
	C59.644279,254.246521 63.167919,251.189789 66.761848,248.218048 
	C69.398880,246.037567 72.128059,243.968536 74.981766,241.566711 
	C84.958572,234.529007 93.326820,226.066483 98.866920,215.733322 
	C103.682213,206.752029 109.498268,203.386398 119.711670,203.766464 
	C141.004669,204.558838 162.347717,204.016174 183.670212,204.003906 
	C227.664673,203.978607 265.657776,168.951599 269.274750,125.091202 
	C269.546844,121.791725 269.789551,118.489815 270.380432,114.575211 
	C275.637512,105.529404 281.947113,105.100357 288.325745,112.763855 
	C290.379089,124.177841 288.320740,135.286591 284.903290,146.026810 
	C272.525421,184.927078 246.489655,209.833603 206.950409,220.173325 
	C200.131058,221.956635 192.893967,222.768127 185.831665,222.879837 
	C164.348083,223.219696 142.855347,223.045837 121.366867,222.937195 
	C118.423141,222.922318 116.700142,223.670227 114.994179,226.344147 
	C103.527527,244.316956 87.866165,257.884155 69.544464,268.513824 
	C66.192566,270.458466 62.768810,269.975250 59.753929,267.758362 
	C56.478897,265.350220 54.931576,262.060211 55.963234,257.580902 
z"/>
<path fill="#FF8E1D" opacity="1.000000" stroke="none" 
	d="
M288.525024,112.368744 
	C281.947113,105.100357 275.637512,105.529404 270.412903,114.148087 
	C269.113708,108.381638 268.559601,102.313339 267.047150,96.494118 
	C257.631104,60.265091 234.465363,37.818218 197.718033,31.233349 
	C183.507401,28.686899 168.569077,30.229309 153.964188,29.837484 
	C149.753067,29.724504 145.586182,30.480946 141.610931,27.447809 
	C137.759064,24.508827 136.812912,20.673567 138.296036,17.171576 
	C139.515228,14.292803 143.132156,10.401488 145.661240,10.419851 
	C170.394852,10.599437 195.491440,6.980040 219.508240,16.336374 
	C238.940445,23.906666 254.920868,36.002941 267.670410,52.465073 
	C279.800934,68.127922 286.008423,86.141113 288.775696,105.508255 
	C289.077118,107.617867 288.756409,109.816368 288.525024,112.368744 
z"/>
<path fill="#FFD704" opacity="1.000000" stroke="none" 
	d="
M330.458954,265.728821 
	C330.039154,263.894928 330.148895,261.867401 329.728729,259.956421 
	C328.478943,254.272049 325.277985,252.189819 317.532532,251.915970 
	C329.646515,242.681549 338.021423,230.810287 342.374237,215.728500 
	C350.415558,187.866653 334.201843,154.186890 307.259552,143.835800 
	C304.185150,142.654617 301.093201,141.455246 298.175964,139.943008 
	C293.299530,137.415146 291.413666,132.923340 293.073853,128.520309 
	C294.858887,123.786079 300.170105,120.886887 305.178467,122.268303 
	C315.654999,125.157997 325.125244,130.155502 333.402557,137.147964 
	C353.388580,154.031662 364.180084,175.607407 363.663361,201.837296 
	C363.168365,226.962494 352.904388,247.823502 332.951813,263.571167 
	C332.171844,264.186798 331.479492,264.913513 330.458954,265.728821 
z"/>
<path fill="#50B154" opacity="1.000000" stroke="none" 
	d="
M183.940353,70.880386 
	C187.207809,64.858002 191.099686,62.658115 196.190948,63.955750 
	C200.951157,65.169006 203.921555,69.767242 203.904587,75.881210 
	C203.826462,104.038155 203.750488,132.195099 203.673889,160.352036 
	C203.672989,160.685287 203.675125,161.018539 203.673584,161.351791 
	C203.635849,169.509949 199.542282,174.853607 193.403305,174.758804 
	C187.299011,174.664536 183.500122,169.664841 183.484375,161.593094 
	C183.444702,141.265305 183.434662,120.937431 183.431564,99.765488 
	C183.613708,89.574379 183.777039,80.227386 183.940353,70.880386 
z"/>
<path fill="#FF4D4D" opacity="1.000000" stroke="none" 
	d="
M113.038429,97.846176 
	C113.025803,120.658234 113.032318,143.470322 112.989456,166.282333 
	C112.975716,173.593933 109.722862,178.278137 104.332375,178.998581 
	C97.731102,179.880859 93.062660,175.078674 93.023170,167.052505 
	C92.943726,150.901169 92.974052,134.749130 93.006805,118.597458 
	C93.036842,103.782852 93.129639,88.968376 93.539200,74.198532 
	C95.764153,77.474266 97.232635,81.055687 99.616272,83.858948 
	C103.794579,88.772827 108.534042,93.209564 113.038429,97.846176 
z"/>
<path fill="#FF8E1E" opacity="1.000000" stroke="none" 
	d="
M113.376617,97.912964 
	C108.534042,93.209564 103.794579,88.772827 99.616272,83.858948 
	C97.232635,81.055687 95.764153,77.474266 93.803802,73.828033 
	C94.822975,64.633118 102.331436,61.056595 109.532646,66.065788 
	C112.228386,67.940948 114.605133,70.318748 116.951164,72.645027 
	C127.578217,83.182594 138.142303,93.783653 148.749512,104.953568 
	C143.709290,110.610260 138.057953,115.394287 140.074677,123.825699 
	C131.288055,115.210388 122.501419,106.595070 113.376617,97.912964 
z"/>
<path fill="#FDD602" opacity="1.000000" stroke="none" 
	d="
M140.224976,124.140121 
	C138.057953,115.394287 143.709290,110.610260 148.918152,105.239883 
	C160.490555,93.683052 171.914734,82.431610 183.639633,71.030273 
	C183.777039,80.227386 183.613708,89.574379 183.342163,99.280457 
	C174.983322,107.859573 166.566940,115.921677 158.535767,124.350815 
	C152.374481,130.817398 146.511871,131.075272 140.224976,124.140121 
z"/>
</svg>