<?xml version="1.0" standalone="no"?>
<!DOCTYPE svg PUBLIC "-//W3C//DTD SVG 20010904//EN"
 "http://www.w3.org/TR/2001/REC-SVG-20010904/DTD/svg10.dtd">
<svg version="1.0" xmlns="http://www.w3.org/2000/svg"
 width="512.000000pt" height="512.000000pt" viewBox="0 0 512.000000 512.000000"
 preserveAspectRatio="xMidYMid meet">

<g transform="translate(0.000000,512.000000) scale(0.100000,-0.100000)"
fill="#000000" stroke="none">
<path d="M2365 4669 c-169 -41 -335 -147 -458 -294 -63 -75 -148 -235 -168
-318 l-12 -49 330 -331 c181 -183 542 -547 801 -811 l472 -478 25 55 c54 124
56 153 53 887 l-3 675 -34 97 c-64 186 -182 341 -341 447 -91 61 -214 111
-315 130 -92 17 -258 12 -350 -10z"/>
<path d="M759 4452 c-95 -50 -141 -161 -105 -255 13 -34 338 -364 1763 -1788
1437 -1436 1755 -1749 1787 -1759 155 -49 315 111 266 266 -10 32 -323 350
-1754 1783 -1212 1213 -1753 1749 -1781 1762 -58 27 -113 24 -176 -9z"/>
<path d="M1222 2981 c-56 -14 -108 -56 -132 -106 -21 -44 -23 -56 -17 -184 21
-472 270 -899 680 -1165 146 -96 338 -176 492 -205 33 -7 70 -14 83 -17 l22
-4 -2 -223 -3 -222 -250 -5 c-268 -5 -283 -8 -331 -62 -38 -41 -54 -85 -54
-148 0 -90 37 -152 112 -191 36 -18 69 -19 738 -19 669 0 702 1 738 19 75 39
112 101 112 191 0 85 -44 163 -110 194 -16 7 -118 13 -275 16 l-250 5 -3 222
-2 223 22 4 c13 3 50 10 83 16 74 13 235 61 235 69 0 4 -75 82 -168 174 l-167
167 -35 -10 c-52 -15 -276 -12 -371 5 -400 70 -720 357 -833 749 -22 73 -34
156 -50 343 -10 113 -141 195 -264 164z"/>
<path d="M3784 2981 c-49 -12 -101 -49 -125 -88 -18 -28 -24 -63 -35 -179 -16
-175 -32 -238 -96 -374 l-49 -104 158 -158 158 -158 18 22 c34 45 136 265 167
362 42 133 70 306 70 430 0 88 -3 109 -23 147 -41 77 -152 123 -243 100z"/>
<path d="M1713 2713 c25 -424 369 -764 797 -790 l95 -5 -445 446 c-245 245
-447 446 -449 446 -2 0 -1 -44 2 -97z"/>
</g>
</svg>
