<?xml version="1.0" standalone="no"?>
<!DOCTYPE svg PUBLIC "-//W3C//DTD SVG 20010904//EN"
 "http://www.w3.org/TR/2001/REC-SVG-20010904/DTD/svg10.dtd">
<svg version="1.0" xmlns="http://www.w3.org/2000/svg"
 width="512.000000pt" height="512.000000pt" viewBox="0 0 512.000000 512.000000"
 preserveAspectRatio="xMidYMid meet">

<g transform="translate(0.000000,512.000000) scale(0.100000,-0.100000)"
fill="#000000" stroke="none">
<path d="M2337 5105 c-335 -69 -584 -329 -637 -665 -6 -41 -10 -421 -10 -1035
0 -909 1 -976 19 -1061 65 -314 308 -556 623 -620 120 -24 396 -15 493 16 276
88 475 295 548 570 l22 85 0 1015 c0 1156 4 1090 -86 1268 -101 201 -272 345
-484 408 -79 23 -111 27 -255 30 -114 2 -186 -1 -233 -11z"/>
<path d="M3805 2731 c-93 -23 -114 -59 -131 -224 -22 -217 -75 -373 -178 -532
-107 -164 -249 -290 -421 -375 -130 -64 -220 -88 -382 -102 -287 -25 -537 23
-728 139 -302 184 -481 475 -518 841 -14 141 -23 163 -81 206 -20 16 -42 21
-86 21 -71 0 -104 -21 -138 -86 -21 -40 -23 -53 -17 -134 20 -287 112 -546
270 -761 227 -306 588 -510 960 -542 l80 -7 3 -427 2 -427 -402 -3 -403 -3
-33 -23 c-39 -28 -72 -89 -72 -132 0 -43 33 -104 72 -132 l33 -23 962 0 c960
0 962 0 990 21 98 73 98 195 0 268 -28 20 -41 21 -428 24 l-399 3 0 429 0 429
48 6 c200 28 390 102 571 224 99 65 265 226 339 325 108 148 194 332 237 509
33 134 51 333 36 380 -14 41 -82 107 -110 107 -11 0 -25 2 -33 4 -7 2 -26 1
-43 -3z"/>
</g>
</svg>
