<?xml version="1.0" standalone="no"?>
<!DOCTYPE svg PUBLIC "-//W3C//DTD SVG 20010904//EN"
 "http://www.w3.org/TR/2001/REC-SVG-20010904/DTD/svg10.dtd">
<svg version="1.0" xmlns="http://www.w3.org/2000/svg"
 width="73.000000pt" height="60.000000pt" viewBox="0 0 73.000000 60.000000"
 preserveAspectRatio="xMidYMid meet">

<g transform="translate(0.000000,60.000000) scale(0.100000,-0.100000)"
fill="#000000" stroke="none">
<path d="M47 552 c-15 -16 -17 -49 -17 -254 0 -215 2 -236 18 -251 16 -15 54
-17 324 -17 283 0 306 1 321 18 15 16 17 49 17 254 0 215 -2 236 -18 251 -16
15 -54 17 -324 17 -283 0 -306 -1 -321 -18z m593 -252 l0 -210 -270 0 -270 0
0 210 0 210 270 0 270 0 0 -210z"/>
<path d="M305 360 l-59 -60 22 -22 22 -22 25 24 25 23 0 -61 0 -62 30 0 30 0
0 62 0 61 25 -23 25 -24 22 22 22 22 -59 60 c-33 33 -62 60 -65 60 -3 0 -32
-27 -65 -60z"/>
</g>
</svg>
