<?xml version="1.0" standalone="no"?>
<!DOCTYPE svg PUBLIC "-//W3C//DTD SVG 20010904//EN"
 "http://www.w3.org/TR/2001/REC-SVG-20010904/DTD/svg10.dtd">
<svg version="1.0" xmlns="http://www.w3.org/2000/svg"
 width="38.000000pt" height="37.000000pt" viewBox="0 0 38.000000 37.000000"
 preserveAspectRatio="xMidYMid meet">

<g transform="translate(0.000000,37.000000) scale(0.100000,-0.100000)"
fill="#000000" stroke="none">
<path d="M79 343 c-80 -49 -79 -179 1 -227 31 -18 106 -21 130 -6 11 7 29 -4
72 -47 55 -54 59 -56 75 -40 16 16 14 20 -40 75 -43 43 -54 61 -47 72 15 24
12 99 -6 130 -9 15 -29 35 -44 44 -36 20 -107 20 -141 -1z m136 -48 c18 -17
25 -35 25 -64 0 -55 -36 -91 -91 -91 -55 0 -89 34 -89 90 0 56 34 90 90 90 30
0 47 -6 65 -25z"/>
</g>
</svg>
