<?xml version="1.0" standalone="no"?>
<!DOCTYPE svg PUBLIC "-//W3C//DTD SVG 20010904//EN"
 "http://www.w3.org/TR/2001/REC-SVG-20010904/DTD/svg10.dtd">
<svg version="1.0" xmlns="http://www.w3.org/2000/svg"
 width="104.000000pt" height="109.000000pt" viewBox="0 0 104.000000 109.000000"
 preserveAspectRatio="xMidYMid meet">

<g transform="translate(0.000000,109.000000) scale(0.100000,-0.100000)"
fill="#5f6368" stroke="none">
<path d="M371 1021 c-12 -12 -22 -41 -26 -76 -6 -43 -13 -60 -31 -71 -21 -14
-27 -14 -70 5 -89 40 -105 31 -179 -99 -41 -74 -55 -108 -51 -125 3 -13 28
-42 56 -65 27 -23 50 -49 50 -58 0 -10 -23 -38 -51 -63 -68 -59 -67 -77 1
-197 69 -121 86 -130 174 -91 43 19 49 19 70 5 18 -11 25 -28 31 -71 11 -88
22 -95 161 -95 63 0 124 4 134 10 21 11 40 60 40 105 0 24 7 37 24 49 23 15
28 14 71 -4 57 -25 97 -25 117 -2 9 9 39 59 68 110 62 110 61 123 -10 182 -27
23 -50 49 -50 58 0 8 25 39 56 68 67 62 67 63 -8 195 -67 118 -85 127 -172 88
-43 -19 -49 -19 -70 -5 -18 11 -25 28 -31 71 -10 87 -24 95 -167 95 -103 0
-120 -2 -137 -19z m212 -98 c3 -10 8 -39 12 -65 5 -36 11 -49 28 -54 12 -4 38
-18 58 -31 l36 -24 47 21 c26 11 54 20 61 20 10 0 75 -98 75 -114 0 -2 -21
-20 -47 -40 l-46 -36 0 -70 0 -70 46 -36 c26 -20 47 -39 47 -42 0 -16 -64
-112 -75 -112 -7 0 -35 9 -60 20 l-48 20 -47 -30 c-26 -16 -52 -30 -58 -30 -6
0 -14 -21 -17 -48 -12 -85 -9 -82 -85 -82 -76 0 -74 -3 -86 83 -3 26 -12 47
-18 47 -7 0 -33 14 -58 30 l-46 30 -47 -20 c-25 -11 -53 -20 -60 -20 -11 0
-75 96 -75 112 0 3 21 22 47 42 l46 36 0 70 0 70 -46 36 c-26 20 -47 39 -47
43 0 18 62 111 74 111 8 0 36 -9 61 -20 l48 -20 47 30 c26 16 52 30 58 30 6 0
14 21 17 48 12 85 9 82 85 82 57 0 69 -3 73 -17z"/>
<path d="M424 681 c-57 -34 -79 -78 -79 -152 0 -56 4 -71 28 -102 37 -49 75
-67 137 -67 62 0 100 18 137 67 24 31 28 46 28 103 0 57 -4 72 -28 103 -15 20
-41 44 -57 52 -41 21 -128 19 -166 -4z"/>
</g>
</svg>
