<?xml version="1.0" standalone="no"?>
<!DOCTYPE svg PUBLIC "-//W3C//DTD SVG 20010904//EN"
 "http://www.w3.org/TR/2001/REC-SVG-20010904/DTD/svg10.dtd">
<svg version="1.0" xmlns="http://www.w3.org/2000/svg"
 width="24.000000pt" height="25.000000pt" viewBox="0 0 24.000000 25.000000"
 preserveAspectRatio="xMidYMid meet">

<g transform="translate(0.000000,25.000000) scale(0.100000,-0.100000)"
fill="#000000" stroke="none">
<path d="M140 226 c0 -2 16 -20 35 -39 23 -23 35 -44 35 -62 0 -18 -12 -39
-35 -62 -39 -39 -41 -43 -21 -43 27 0 76 68 76 105 0 24 -9 45 -31 70 -26 29
-59 47 -59 31z"/>
<path d="M85 190 c-16 -16 -39 -30 -52 -30 -20 0 -23 -5 -23 -35 0 -29 4 -35
22 -35 12 0 37 -14 55 -32 l33 -32 0 97 c0 53 -1 97 -3 97 -2 0 -16 -13 -32
-30z m15 -67 c0 -44 -1 -45 -18 -30 -10 10 -26 17 -35 17 -9 0 -17 7 -17 15 0
8 8 15 19 15 10 0 24 7 31 15 18 22 20 19 20 -32z"/>
<path d="M140 125 c0 -57 0 -58 20 -40 11 10 20 28 20 40 0 12 -9 30 -20 40
-20 18 -20 17 -20 -40z"/>
</g>
</svg>
