<?xml version="1.0" standalone="no"?>
<!DOCTYPE svg PUBLIC "-//W3C//DTD SVG 20010904//EN"
 "http://www.w3.org/TR/2001/REC-SVG-20010904/DTD/svg10.dtd">
<svg version="1.0" xmlns="http://www.w3.org/2000/svg"
 width="39.000000pt" height="42.000000pt" viewBox="0 0 39.000000 42.000000"
 preserveAspectRatio="xMidYMid meet">

<g transform="translate(0.000000,42.000000) scale(0.100000,-0.100000)"
fill="#000000" stroke="none">
<path d="M240 366 c0 -8 14 -23 31 -33 92 -54 92 -192 0 -246 -31 -18 -42 -47
-18 -47 25 0 85 50 103 87 39 79 14 182 -55 229 -40 27 -61 31 -61 10z"/>
<path d="M150 315 c-39 -39 -49 -45 -87 -45 l-43 0 0 -60 0 -60 42 0 c37 0 48
-6 90 -47 l48 -47 0 152 c0 84 -1 152 -3 152 -2 0 -23 -20 -47 -45z m10 -107
l0 -61 -23 21 c-13 12 -35 22 -50 22 -20 0 -27 5 -27 20 0 15 7 20 28 20 16 0
37 9 47 20 10 11 20 20 22 20 1 0 3 -28 3 -62z"/>
<path d="M240 210 c0 -78 11 -89 37 -35 16 33 16 37 0 70 -26 54 -37 43 -37
-35z"/>
</g>
</svg>
