<?xml version="1.0" standalone="no"?>
<!DOCTYPE svg PUBLIC "-//W3C//DTD SVG 20010904//EN"
 "http://www.w3.org/TR/2001/REC-SVG-20010904/DTD/svg10.dtd">
<svg version="1.0" xmlns="http://www.w3.org/2000/svg"
 width="90.000000pt" height="128.000000pt" viewBox="0 0 90.000000 128.000000"
 preserveAspectRatio="xMidYMid meet">

<g transform="translate(0.000000,128.000000) scale(0.100000,-0.100000)"
fill="#000000" stroke="none">
<path d="M54 1226 l-34 -34 0 -552 0 -552 34 -34 34 -34 362 0 362 0 34 34 34
34 0 552 0 552 -34 34 -34 34 -362 0 -362 0 -34 -34z m716 -586 l0 -500 -320
0 -320 0 0 500 0 500 320 0 320 0 0 -500z"/>
<path d="M413 1069 c-99 -29 -114 -177 -22 -225 87 -44 179 15 179 115 0 60
-39 101 -110 116 -8 2 -29 -1 -47 -6z"/>
<path d="M366 686 c-100 -37 -161 -128 -160 -236 2 -212 250 -323 406 -182
165 149 75 414 -145 428 -39 3 -76 -1 -101 -10z m165 -142 c63 -61 57 -151
-13 -194 -90 -55 -214 23 -193 121 8 35 49 87 79 100 37 15 96 3 127 -27z"/>
</g>
</svg>
