<?xml version="1.0" standalone="no"?>
<!DOCTYPE svg PUBLIC "-//W3C//DTD SVG 20010904//EN"
 "http://www.w3.org/TR/2001/REC-SVG-20010904/DTD/svg10.dtd">
<svg version="1.0" xmlns="http://www.w3.org/2000/svg"
 width="53.000000pt" height="49.000000pt" viewBox="0 0 53.000000 49.000000"
 preserveAspectRatio="xMidYMid meet">

<g transform="translate(0.000000,49.000000) scale(0.100000,-0.100000)"
fill="#000000" stroke="none">
<path d="M40 251 c0 -118 4 -211 9 -211 12 0 433 190 448 202 7 6 10 14 7 19
-10 17 -129 68 -451 196 -10 4 -13 -41 -13 -206z m402 14 c16 -11 16 -13 -5
-23 -21 -10 -330 -148 -354 -159 -10 -4 -13 10 -13 50 l0 55 100 27 c55 15
100 31 100 35 0 4 -45 20 -100 35 l-100 28 0 53 0 52 178 -71 c97 -39 185 -76
194 -82z"/>
</g>
</svg>
