<?xml version="1.0" standalone="no"?>
<!DOCTYPE svg PUBLIC "-//W3C//DTD SVG 20010904//EN"
 "http://www.w3.org/TR/2001/REC-SVG-20010904/DTD/svg10.dtd">
<svg version="1.0" xmlns="http://www.w3.org/2000/svg"
 width="44.000000pt" height="33.000000pt" viewBox="0 0 44.000000 33.000000"
 preserveAspectRatio="xMidYMid meet">

<g transform="translate(0.000000,33.000000) scale(0.100000,-0.100000)"
fill="#000000" stroke="none">
<path d="M105 295 c-51 -50 -15 -135 57 -135 37 1 59 14 76 47 18 32 15 48
-14 82 -33 40 -83 43 -119 6z m85 -40 c10 -12 10 -18 0 -30 -7 -8 -18 -15 -25
-15 -7 0 -18 7 -25 15 -10 12 -10 18 0 30 7 8 18 15 25 15 7 0 18 -7 25 -15z"/>
<path d="M240 316 c0 -2 7 -17 15 -32 19 -36 19 -52 0 -88 -20 -37 -20 -36 20
-36 46 0 85 37 85 80 0 43 -39 80 -85 80 -19 0 -35 -2 -35 -4z"/>
<path d="M75 139 c-51 -19 -65 -38 -65 -86 l0 -43 156 0 155 0 -3 47 c-3 41
-7 49 -37 67 -39 23 -160 32 -206 15z m182 -62 c16 -16 11 -17 -90 -17 -59 0
-107 4 -107 9 0 32 166 39 197 8z"/>
<path d="M318 125 c15 -19 22 -42 22 -71 l0 -44 46 0 45 0 -3 47 c-3 40 -7 49
-33 64 -16 9 -45 20 -64 24 l-34 7 21 -27z"/>
</g>
</svg>
