<?xml version="1.0" standalone="no"?>
<!DOCTYPE svg PUBLIC "-//W3C//DTD SVG 20010904//EN"
 "http://www.w3.org/TR/2001/REC-SVG-20010904/DTD/svg10.dtd">
<svg version="1.0" xmlns="http://www.w3.org/2000/svg"
 width="58.000000pt" height="55.000000pt" viewBox="0 0 58.000000 55.000000"
 preserveAspectRatio="xMidYMid meet">

<g transform="translate(0.000000,55.000000) scale(0.100000,-0.100000)"
fill="#000000" stroke="none">
<path d="M46 491 c-11 -12 -14 -21 -7 -26 7 -4 11 -69 11 -184 0 -124 4 -181
12 -189 8 -8 63 -12 182 -12 l170 0 38 -37 38 -37 22 22 23 22 -230 230 c-126
127 -233 230 -236 230 -3 0 -14 -9 -23 -19z m324 -358 c0 -2 -61 -3 -135 -3
l-135 0 0 137 0 138 135 -135 c74 -74 135 -136 135 -137z"/>
<path d="M190 455 c22 -23 30 -25 117 -25 l93 0 0 -93 c0 -87 2 -95 25 -117
23 -21 25 -22 25 -5 0 15 12 8 50 -30 l50 -49 0 144 0 144 -50 -49 -50 -49 0
65 c0 37 -5 70 -12 77 -8 8 -54 12 -142 12 l-129 0 23 -25z"/>
</g>
</svg>
