<?xml version="1.0" standalone="no"?>
<!DOCTYPE svg PUBLIC "-//W3C//DTD SVG 20010904//EN"
 "http://www.w3.org/TR/2001/REC-SVG-20010904/DTD/svg10.dtd">
<svg version="1.0" xmlns="http://www.w3.org/2000/svg"
 width="512.000000pt" height="512.000000pt" viewBox="0 0 512.000000 512.000000"
 preserveAspectRatio="xMidYMid meet">

<g transform="translate(0.000000,512.000000) scale(0.100000,-0.100000)"
fill="#000000" stroke="none">
<path d="M2325 4949 c-221 -21 -493 -92 -714 -186 -551 -235 -1015 -696 -1250
-1245 -393 -915 -196 -1954 504 -2653 937 -938 2455 -938 3390 -1 938 940 938
2451 0 3392 -505 507 -1211 760 -1930 693z m374 -1143 c64 -33 113 -82 149
-149 l27 -52 0 -565 0 -565 -27 -52 c-36 -67 -85 -116 -151 -150 -45 -23 -64
-27 -137 -27 -72 0 -93 4 -136 26 -75 39 -107 70 -145 140 l-34 63 0 565 0
565 27 52 c46 87 124 151 213 174 55 15 159 2 214 -25z m12 -1927 c67 -36 98
-68 137 -143 22 -43 26 -64 26 -136 0 -73 -4 -92 -27 -137 -34 -66 -84 -116
-150 -150 -45 -23 -64 -27 -137 -27 -72 0 -93 4 -136 26 -75 40 -107 70 -145
140 -31 58 -34 70 -33 148 0 72 4 93 26 136 38 73 69 106 129 139 71 38 102
45 182 40 51 -3 81 -11 128 -36z"/>
</g>
</svg>
